# AST/ASF file generated using VICON BodyLanguage
# -----------------------------------------------
:version 1.10
:name VICON
:units
  mass 1.0
  length 0.45
  angle deg
:documentation
   .ast/.asf automatically generated from VICON data using
   VICON BodyBuilder and BodyLanguage model FoxedUp or BRILLIANT.MOD
:root
   order TX TY TZ RX RY RZ
   axis XYZ
   position 0 0 0  
   orientation 0 0 0 
:bonedata
  begin
     id 1 
     name lhipjoint
     direction 0.604623 -0.733026 0.311616 
     length 2.56391 
     axis 0 0 0  XYZ
  end
  begin
     id 2 
     name lfemur
     direction 0.34202 -0.939693 0  
     length 7.75596  
     axis 0 0 20  XYZ
    dof rx ry rz
    limits (-160.0 20.0)
           (-70.0 70.0)
           (-60.0 70.0)
  end
  begin
     id 3 
     name ltibia
     direction 0.34202 -0.939693 0   
     length 7.63697   
     axis 0 0 20   XYZ
    dof rx
    limits (-10.0 170.0)
  end
  begin
     id 4 
     name lfoot
     direction 0.048038 -0.131983 0.990087   
     length 1.94388   
     axis -90 7.62852e-016 20   XYZ
    dof rx rz
    limits (-45.0 90.0)
           (-70.0 20.0)
  end
  begin
     id 5 
     name ltoes
     direction 1.53565e-011 -4.21929e-011 1   
     length 0.984801   
     axis -90 7.62852e-016 20   XYZ
    dof rx
    limits (-90.0 20.0)
  end
  begin
     id 6 
     name rhipjoint
     direction -0.609162 -0.729836 0.31026   
     length 2.57511  
     axis 0 0 0  XYZ 
  end
  begin
     id 7 
     name rfemur
     direction -0.34202 -0.939693 0   
     length 7.60772   
     axis 0 0 -20   XYZ
    dof rx ry rz
    limits (-160.0 20.0)
           (-70.0 70.0)
           (-70.0 60.0)
  end
  begin
     id 8 
     name rtibia
     direction -0.34202 -0.939693 0   
     length 7.68497   
     axis 0 0 -20   XYZ
    dof rx
    limits (-10.0 170.0)
 end
 begin
     id 9 
     name rfoot
     direction -0.0969806 -0.266452 0.958957   
     length 2.01398  
     axis -90 -7.62852e-016 -20   XYZ
    dof rx rz
    limits (-45.0 90.0)
           (-20.0 70.0)
  end
  begin
     id 10 
     name rtoes
     direction -1.53552e-011 -4.21869e-011 1   
     length 1.00896   
     axis -90 -7.62852e-016 -20   XYZ
    dof rx
    limits (-90.0 20.0)
  end
  begin
     id 11 
     name lowerback
     direction 0.0305179 0.993923 -0.10576   
     length 2.09077   
     axis 0 0 0   XYZ
    dof rx ry rz
    limits (-20.0 45.0)
           (-30.0 30.0)
           (-30.0 30.0)
  end
  begin
     id 12 
     name upperback
     direction -0.0137909 0.999867 0.00873764   
     length 2.08918   
     axis 0 0 0   XYZ
    dof rx ry rz
    limits (-20.0 45.0)
           (-30.0 30.0)
           (-30.0 30.0)
  end
  begin
     id 13 
     name thorax
     direction -0.0278536 0.997917 0.0581839   
     length 2.11939   
     axis 0 0 0   XYZ
    dof rx ry rz
    limits (-20.0 45.0)
           (-30.0 30.0)
           (-30.0 30.0)
  end
  begin
     id 14 
     name lowerneck
     direction 0.0138689 0.999837 -0.0116016   
     length 1.74353   
     axis 0 0 0   XYZ
    dof rx ry rz
    limits (-20.0 45.0)
           (-30.0 30.0)
           (-30.0 30.0)
  end
  begin
     id 15 
     name upperneck
     direction -0.00992078 0.999667 0.0238149   
     length 1.71734   
     axis 0 0 0   XYZ
    dof rx ry rz
    limits (-20.0 45.0)
           (-30.0 30.0)
           (-30.0 30.0)
  end
  begin
     id 16
     name head
     direction -0.00530555 0.999941 0.00944937  
     length 1.78249  
     axis 0 0 0   XYZ
    dof rx ry rz
    limits (-20.0 45.0)
           (-30.0 30.0)
           (-30.0 30.0)
  end
  begin
     id 17 
     name lclavicle
     direction 0.929165 0.366864 0.0454227  
     length 3.65686  
     axis 0 0 0   XYZ
    dof ry rz
    limits (-20.0 10.0)
           (0.0 20.0)
  end
  begin
     id 18 
     name lhumerus
     direction 1 -4.4897e-011 3.05413e-018   
     length 5.15218   
     axis -180 -30 -90   XYZ
    dof rx ry rz
    limits (-60.0 90.0)
           (-90.0 90.0)
           (-90.0 90.0)
  end
  begin
     id 19
     name lradius
     direction 1 -4.48963e-011 5.40022e-027   
     length 3.49459   
     axis -180 -30 -90   XYZ
    dof rx
    limits (-10.0 170.0)
  end
  begin
     id 20
     name lwrist
     direction 1 -4.48966e-011 9.79369e-027   
     length 1.7473   
     axis -4.67603e-015 90 90   XYZ
    dof ry
    limits (-180.0 0.0)
 end
  begin
     id 21 
     name lhand
     direction 1 -4.48996e-011 1.9593e-026   
     length 0.512466   
     axis -1.24987e-014 90 90   XYZ
    dof rx rz
    limits (-90.0 90.0)
           (-45.0 45.0)
  end
  begin
     id 22 
     name lfingers
     direction 1 -4.48931e-011 3.91616e-026   
     length 0.413163   
     axis -2.49979e-014 90 90   XYZ
    dof rx
    limits (0.0 90.0)
  end
  begin
     id 23
     name lthumb
     direction 0.707107 -6.34959e-011 0.707107   
     length 0.593222   
     axis -90 45 5.69224e-014   XYZ
    dof rx rz
    limits (-45.0 45.0)
           (-45.0 45.0)
  end
  begin
     id 24 
     name rclavicle
     direction -0.951469 0.307727 0.00346571   
     length 3.42864  
     axis 0 0 0   XYZ 
    dof ry rz
    limits (-10.0 20.0)
           (-20.0 0.0)
  end
  begin
     id 25 
     name rhumerus
     direction -1 -4.48967e-011 2.58643e-027  
     length 5.44344   
     axis -180 30 90   XYZ
    dof rx ry rz
    limits (-90.0 60.0)
           (-90.0 90.0)
           (-90.0 90.0)
  end
  begin
     id 26 
     name rradius
     direction -1 -4.48973e-011 4.26485e-028   
     length 3.58403   
     axis -180 30 90   XYZ
    dof rx
    limits (-10.0 170.0)
  end
  begin
     id 27 
     name rwrist
     direction -1 -4.48962e-011 9.79331e-027   
     length 1.79202   
     axis -4.67603e-015 -90 -90   XYZ
    dof ry
    limits (-180.0 0.0)
  end
  begin
     id 28
     name rhand
     direction -1 -4.48975e-011 1.95891e-026   
     length 0.34249   
     axis -1.24987e-014 -90 -90   XYZ
    dof rx rz
    limits (-90.0 90.0)
           (-45.0 45.0)
  end
  begin
     id 29
     name rfingers
     direction -1 -4.48893e-011 3.9147e-026   
     length 0.276124   
     axis -2.49979e-014 -90 -90   XYZ
    dof rx
    limits (0.0 90.0)
  end
  begin
     id 30
     name rthumb
     direction -0.707107 -6.34898e-011 0.707107   
     length 0.39646   
     axis -90 -45 -5.69224e-014   XYZ
    dof rx rz
    limits (-45.0 45.0)
           (-45.0 45.0)
  end
:hierarchy
  begin
    root lhipjoint rhipjoint lowerback
    lhipjoint lfemur
    lfemur ltibia
    ltibia lfoot
    lfoot ltoes
    rhipjoint rfemur
    rfemur rtibia
    rtibia rfoot
    rfoot rtoes
    lowerback upperback
    upperback thorax
    thorax lowerneck lclavicle rclavicle
    lowerneck upperneck
    upperneck head
    lclavicle lhumerus
    lhumerus lradius
    lradius lwrist
    lwrist lhand lthumb
    lhand lfingers
    rclavicle rhumerus
    rhumerus rradius
    rradius rwrist
    rwrist rhand rthumb
    rhand rfingers
  end

#!OML:ASF H:\charlestonDancing\Project 1\Capture day 1\Session 1\femaleDancer.ASF
:FULLY-SPECIFIED
:DEGREES
372
root -10.5409 17.6842 -2.12584 -178.704 97.9654 -539.991
lowerback 5.0585 8.40019 3.015
upperback -3.48474 11.3542 -3.05901
thorax -5.23653 5.4777 -5.81298
lowerneck 15.8459 21.2329 12.959
upperneck -8.76816 29.9079 -10.2272
head -1.66718 15.1262 -5.71369
rclavicle 6.17475e-014 7.15625e-015
rhumerus -32.7337 -7.89948 -77.6835
rradius 16.8599
rwrist 40.2317
rhand -16.7415 -34.9026
rfingers 7.12502
rthumb 9.48478 -64.6692
lclavicle 6.17475e-014 7.15625e-015
lhumerus -49.1471 21.874 47.8714
lradius 17.6826
lwrist -19.7376
lhand -20.2845 22.4009
lfingers 7.12502
lthumb 6.06517 52.294
rfemur -6.69908 -22.3963 21.1811
rtibia 52.5987
rfoot -10.0449 -26.8329
rtoes -23.7185
lfemur -20.9025 7.4307 -29.9157
ltibia 36.6232
lfoot -19.1391 8.51398
ltoes -3.82803
373
root -10.4296 17.6769 -2.16655 -173.045 95.7126 -533.921
lowerback 5.28448 8.11975 2.42233
upperback -3.2055 10.9291 -3.17635
thorax -5.20105 5.2908 -5.60847
lowerneck 15.9719 20.8588 13.256
upperneck -8.87703 29.4595 -10.4888
head -1.68628 14.9116 -5.8438
rclavicle 6.76365e-014 -5.56597e-015
rhumerus -32.5937 -9.10196 -77.186
rradius 16.9563
rwrist 40.2118
rhand -16.834 -34.3664
rfingers 7.12502
rthumb 9.39547 -64.137
lclavicle 6.76365e-014 -5.56597e-015
lhumerus -48.8753 22.052 48.3364
lradius 17.5723
lwrist -19.4743
lhand -20.6169 22.409
lfingers 7.12502
lthumb 5.74423 52.3111
rfemur -8.49463 -22.6223 19.6117
rtibia 57.2259
rfoot -2.36843 -24.7192
rtoes -24.8159
lfemur -19.4949 6.58281 -30.7922
ltibia 35.6352
lfoot -18.5761 7.59308
ltoes -3.29826
374
root -10.3227 17.681 -2.20985 -160.377 93.5307 -520.894
lowerback 5.54786 7.81077 1.88624
upperback -2.9583 10.4719 -3.25261
thorax -5.21586 5.08337 -5.39432
lowerneck 16.1091 20.52 13.3544
upperneck -8.94121 29.0368 -10.5514
head -1.75016 14.7022 -5.91129
rclavicle 2.3382e-014 1.35174e-014
rhumerus -32.4939 -9.52109 -77.0604
rradius 17.1207
rwrist 39.4972
rhand -16.9664 -34.1456
rfingers 7.12502
rthumb 9.26772 -63.9219
lclavicle 2.3382e-014 1.35174e-014
lhumerus -48.4933 21.8309 49.419
lradius 17.6759
lwrist -18.8033
lhand -20.9473 22.5646
lfingers 7.12502
lthumb 5.42525 52.4752
rfemur -10.3062 -22.1951 17.9986
rtibia 61.315
rfoot 3.39682 -21.5645
rtoes -19.4176
lfemur -18.1128 5.84192 -31.6214
ltibia 34.6727
lfoot -17.9262 6.73962
ltoes -4.63291
375
root -10.2242 17.6823 -2.25286 -122.676 91.7614 -482.887
lowerback 5.87067 7.49744 1.57588
upperback -2.7493 10.0281 -3.25932
thorax -5.27152 4.8728 -5.23656
lowerneck 16.2087 20.2198 13.3602
upperneck -8.8557 28.66 -10.4262
head -1.79971 14.509 -5.90789
rclavicle -6.69159e-014 -1.66979e-014
rhumerus -32.4901 -9.3151 -77.2625
rradius 17.4539
rwrist 38.3362
rhand -17.2178 -34.3463
rfingers 7.12502
rthumb 9.02523 -64.1332
lclavicle -6.69159e-014 -1.66979e-014
lhumerus -48.071 21.7972 50.5408
lradius 17.8238
lwrist -18.4516
lhand -21.3501 22.3496
lfingers 7.12502
lthumb 5.03632 52.2697
rfemur -12.0101 -21.471 16.7307
rtibia 64.872
rfoot 8.85931 -18.0844
rtoes -14.4597
lfemur -16.8445 5.17851 -32.2107
ltibia 33.8765
lfoot -17.3611 5.87409
ltoes -6.69671
376
root -10.1326 17.6851 -2.28879 -44.2338 91.7777 -404.072
lowerback 6.39026 7.28441 1.78316
upperback -2.58562 9.76523 -3.11512
thorax -5.40728 4.73068 -5.24218
lowerneck 16.2528 19.8633 13.4176
upperneck -8.65514 28.2198 -10.2284
head -1.81741 14.2808 -5.87711
rclavicle -8.1626e-014 -9.54166e-015
rhumerus -32.6249 -8.7339 -77.7305
rradius 18.023
rwrist 36.5542
rhand -17.1344 -34.8809
rfingers 7.12502
rthumb 9.10569 -64.6643
lclavicle -8.1626e-014 -9.54166e-015
lhumerus -47.3756 21.4713 52.1041
lradius 18.0716
lwrist -17.8855
lhand -21.8913 21.8536
lfingers 7.12502
lthumb 4.51377 51.7855
rfemur -13.5932 -20.1323 16.2907
rtibia 67.9381
rfoot 14.12 -14.6187
rtoes -10.2337
lfemur -15.6051 4.66596 -32.1113
ltibia 33.2153
lfoot -16.9178 4.79278
ltoes -7.41375
377
root -10.0476 17.6898 -2.31535 -14.6124 93.583 -374.068
lowerback 6.86401 7.14102 1.94298
upperback -2.36622 9.59583 -2.88408
thorax -5.47267 4.64041 -5.12575
lowerneck 16.1443 19.4515 13.5522
upperneck -8.37366 27.7009 -10.0895
head -1.77782 14.0166 -5.84493
rclavicle -4.81059e-014 2.22639e-014
rhumerus -32.6031 -8.00143 -78.2054
rradius 18.5398
rwrist 35.1534
rhand -16.2278 -35.1641
rfingers 7.12502
rthumb 9.98041 -64.9075
lclavicle -4.81059e-014 2.22639e-014
lhumerus -46.2829 20.3692 54.691
lradius 18.6331
lwrist -16.2561
lhand -22.55 21.4606
lfingers 7.12502
lthumb 3.87762 51.4051
rfemur -15.165 -18.3358 16.187
rtibia 70.5472
rfoot 18.5029 -11.2426
rtoes -9.02801
lfemur -14.5448 4.12889 -31.7957
ltibia 32.852
lfoot -16.6049 3.36557
ltoes -5.78809
